<?xml version="1.0" encoding="UTF-8" standalone="no"?>
<svg xmlns="http://www.w3.org/2000/svg" viewBox="0 200 626.759 230">
    <!-- image taken from https://www.svgrepo.com/svg/118397/carnival-thin-elegant-mask -->
    <path d="M313.38,269.394c-27.85,0-197.132-88.746-313.38-26.268c18.283,36.371,32.547,71.365,51.63,101.204
        c29.16,45.6,68.565,66.734,114.646,60.524c54.568-7.354,109.682-56.676,147.104-56.676c37.417,0,92.534,49.317,147.101,56.671
        c46.078,6.215,85.478-14.93,114.65-60.525c19.073-29.833,33.342-64.833,51.628-101.204
        C510.509,180.653,341.23,269.394,313.38,269.394z M153.718,356.415c-22.582,3.047-41.896-7.307-56.19-29.65
        c-9.349-14.629-16.341-31.777-25.296-49.602c62.055-33.352,113.274-2.267,166.664,29.234
        C211.874,331.371,185.625,352.119,153.718,356.415z M529.227,326.764c-14.29,22.344-33.606,32.697-56.183,29.661
        c-31.915-4.302-58.163-25.055-85.179-50.028c53.391-31.501,104.606-62.581,166.659-29.234
        C545.568,294.992,538.581,312.143,529.227,326.764z"/>
</svg>